<svg id="svg" version="1.1" xmlns="http://www.w3.org/2000/svg" viewBox="0 0 500 500" style="display: block;"><path d="M0 0 C165 0 330 0 500 0 C500 165 500 330 500 500 C335 500 170 500 0 500 C0 335 0 170 0 0 Z " transform="translate(0,0)" style="fill: #101010;"/><path d="M0 0 C12.54 0 25.08 0 38 0 C39.22074219 2.57425781 40.44148438 5.14851562 41.69921875 7.80078125 C43.36158687 11.30487372 45.02449632 14.80870912 46.6875 18.3125 C47.33733856 19.6817865 47.33733856 19.6817865 48.00030518 21.07873535 C53.25706943 32.15290751 58.5355298 43.21543121 63.875 54.25 C68.08822287 62.96057953 72.19938748 71.71269391 76.25 80.5 C81.19900895 91.23421408 86.31290978 101.87908977 91.5 112.5 C97.23009849 124.23275558 102.84277373 136.00592278 108.29956055 147.86865234 C111.04516885 153.82639172 113.83123174 159.76065636 116.69140625 165.6640625 C116.99599762 166.29306458 117.30058899 166.92206665 117.6144104 167.57012939 C119.08334461 170.60001819 120.55834912 173.62670455 122.04003906 176.65039062 C122.55920898 177.71708984 123.07837891 178.78378906 123.61328125 179.8828125 C124.07516846 180.82527832 124.53705566 181.76774414 125.01293945 182.73876953 C126 185 126 185 126 187 C126.66 187 127.32 187 128 187 C128.09482666 186.37134033 128.18965332 185.74268066 128.28735352 185.0949707 C129.28836385 180.74765722 130.85262304 176.65904579 132.40234375 172.48046875 C132.75087906 171.53213165 133.09941437 170.58379456 133.45851135 169.60671997 C134.6143401 166.46555233 135.77576986 163.32648942 136.9375 160.1875 C137.75927275 157.95928684 138.58088466 155.73101436 139.40234375 153.50268555 C145.42887737 137.1729144 151.52751433 120.87046941 157.65698242 104.57910156 C162.3701637 92.04597157 167.04797382 79.50008515 171.703125 66.9453125 C172.29044379 65.36172913 172.87776476 63.77814658 173.46508789 62.19456482 C176.08183936 55.1381531 178.69720402 48.08123413 181.30841446 41.02276993 C182.39894167 38.07608582 183.49103685 35.12998437 184.58345795 32.18400192 C185.08914223 30.81918739 185.59414521 29.45412016 186.09836578 28.08876419 C186.45346348 27.12729036 186.45346348 27.12729036 186.81573486 26.14639282 C187.12172041 25.31689338 187.12172041 25.31689338 187.43388748 24.47063637 C190.49737714 16.24923411 193.73746827 8.15632933 197 0 C210.53 0 224.06 0 238 0 C238 0.99 238 1.98 238 3 C237.11248047 3.14695313 237.11248047 3.14695313 236.20703125 3.296875 C231.17357687 4.24937208 227.63276546 5.15354246 224 9 C215.89518524 21.90766796 217.84902048 40.59028897 217.85473633 55.22827148 C217.85173461 56.79071125 217.8483298 58.35315028 217.84455872 59.91558838 C217.83582056 64.11192563 217.83338504 68.30824242 217.83274293 72.50458789 C217.83202696 75.13687582 217.82988248 77.76915872 217.82724571 80.40144539 C217.81802821 89.61406911 217.81390657 98.82667846 217.81469727 108.03930664 C217.81529809 116.58090349 217.80473597 125.12243721 217.7889536 133.66401809 C217.77581907 141.03945948 217.77051579 148.41488036 217.77115268 155.79033333 C217.77140579 160.17699642 217.76865834 164.56360318 217.75797462 168.95025444 C217.74819247 173.07821973 217.74828263 177.20607596 217.75549126 181.33404541 C217.75652444 182.83508021 217.75425118 184.33612218 217.7481308 185.83714485 C217.33361667 208.76089878 217.33361667 208.76089878 227.3125 228.5625 C230.94163843 230.50366707 233.90301895 230.72223857 238 231 C238 231.99 238 232.98 238 234 C217.21 234 196.42 234 175 234 C175 233.01 175 232.02 175 231 C175.66386719 230.91363281 176.32773437 230.82726562 177.01171875 230.73828125 C182.83748928 229.81126083 186.35386238 228.97200585 190 224 C197.31934556 209.90348263 196.1472523 193.09228899 196.11352539 177.65527344 C196.11324281 175.83086651 196.11340264 174.00645947 196.1139679 172.18205261 C196.1142531 167.26348848 196.10840124 162.34494907 196.10139394 157.42639065 C196.0951142 152.27345851 196.09455296 147.12052571 196.09336853 141.96759033 C196.09026878 132.22505194 196.08207378 122.48252486 196.07201904 112.73999143 C196.06081565 101.64198146 196.05533683 90.54397093 196.05032361 79.44595671 C196.03988995 56.63063155 196.02231692 33.81531641 196 11 C195.7948965 11.55947075 195.589793 12.1189415 195.37847424 12.69536591 C176.98213147 62.87127181 176.98213147 62.87127181 169.80859375 81.86206055 C163.64075509 98.19625093 157.57339193 114.56439499 151.60049438 130.97076416 C145.59082933 147.47049691 139.43692136 163.91487639 133.25195312 180.34960938 C132.53248914 182.26169507 131.8130868 184.17380396 131.09375 186.0859375 C130.7493689 187.00135315 130.40498779 187.9167688 130.0501709 188.85992432 C126.65724168 197.89086033 123.32137513 206.9425416 120 216 C118.68 216 117.36 216 116 216 C86.25 152.25000001 86.25 152.25000001 85.37501526 150.37503052 C84.79163329 149.12492775 84.20824909 147.87482603 83.62486267 146.62472534 C82.16725519 143.50130616 80.70968633 140.37786897 79.25219727 137.25439453 C76.61857662 131.61050792 73.98467178 125.96675483 71.34933472 120.32366943 C65.3864383 107.55517488 59.43071541 94.78348581 53.5 82 C44.05452011 61.64131792 34.58202013 41.29483767 25 21 C23.44535589 32.89350348 23.44535589 32.89350348 27.07421875 44.02734375 C28.64053191 47.36484648 28.26349212 50.37698339 28 54 C26.68 54.66 25.36 55.32 24 56 C24.66 56.763125 25.32 57.52625 26 58.3125 C28 61 28 61 28 64 C27.01 64 26.02 64 25 64 C25.495 64.969375 25.99 65.93875 26.5 66.9375 C28.39857367 71.28728381 28.28589988 75.33030204 28 80 C26.02 80.495 26.02 80.495 24 81 C24.28875 81.53367187 24.5775 82.06734375 24.875 82.6171875 C27.85432515 88.59652755 28.4985299 93.36678275 28 100 C26.02 100.495 26.02 100.495 24 101 C24.32742187 101.70511719 24.65484375 102.41023438 24.9921875 103.13671875 C26.08400722 106.23867167 26.20385396 108.54006053 26.125 111.8125 C26.10695312 112.78832031 26.08890625 113.76414062 26.0703125 114.76953125 C26.04710937 115.50558594 26.02390625 116.24164063 26 117 C26.67675781 117.22171875 27.35351562 117.4434375 28.05078125 117.671875 C31.85074705 119.38311788 34.88747456 121.73040016 38.1875 124.25 C43.92460191 128.55300252 49.72731571 132.50205605 56 136 C55.01 136.33 54.02 136.66 53 137 C50.74983543 135.79303841 48.72706422 134.55473597 46.625 133.125 C46.01446777 132.72095947 45.40393555 132.31691895 44.77490234 131.90063477 C42.84053327 130.61378965 40.91865347 129.31014693 39 128 C38.36449219 127.5663916 37.72898438 127.1327832 37.07421875 126.68603516 C33.36607583 124.14772304 29.67682147 121.58354731 26 119 C26.49113281 120.36511719 26.49113281 120.36511719 26.9921875 121.7578125 C28.10188432 125.32776738 28.14864893 128.28377679 28 132 C26.02 132.99 26.02 132.99 24 134 C24.495 134.7425 24.99 135.485 25.5 136.25 C27 139 27 139 27 143 C23.13066838 142.42676569 20.84777943 140.61046448 18 138 C18 137.34 18 136.68 18 136 C20.49361571 137.20381448 22.68143083 138.45428722 25 140 C24.4225 139.22914063 23.845 138.45828125 23.25 137.6640625 C22.5075 136.66117188 21.765 135.65828125 21 134.625 C20.2575 133.62726563 19.515 132.62953125 18.75 131.6015625 C17 129 17 129 17 127 C17.556875 127.28875 18.11375 127.5775 18.6875 127.875 C21.08494645 129.0413253 23.51596939 130.0339881 26 131 C25.67 129.02 25.34 127.04 25 125 C24.34 125 23.68 125 23 125 C22.91363281 124.40832031 22.82726562 123.81664062 22.73828125 123.20703125 C22.59777344 122.41683594 22.45726562 121.62664062 22.3125 120.8125 C22.18488281 120.03519531 22.05726563 119.25789063 21.92578125 118.45703125 C19.84616995 112.93772531 14.25494489 109.47243102 9.8125 105.8125 C5.47448015 102.17217315 1.22429734 98.47099788 -2.875 94.5625 C-3.69742188 93.78003906 -4.51984375 92.99757813 -5.3671875 92.19140625 C-7 90 -7 90 -6.7578125 87.71484375 C-6.50773437 87.14894531 -6.25765625 86.58304687 -6 86 C-1.53022557 87.43000096 1.46338417 89.88922628 4.8125 93.0625 C5.33440918 93.54984619 5.85631836 94.03719238 6.39404297 94.53930664 C17.56106489 105.09624964 17.56106489 105.09624964 20.0859375 110.19140625 C20.86601575 112.18156878 20.86601575 112.18156878 23 113 C23.40843195 106.32894482 21.81437728 101.85116429 18.25 96.25 C17.8375 95.5075 17.425 94.765 17 94 C17.495 92.515 17.495 92.515 18 91 C18.99 91 19.98 91 21 91 C21.495 94.465 21.495 94.465 22 98 C23.32 98 24.64 98 26 98 C26 90.59724887 23.62320383 85.95342007 19.70703125 79.87451172 C16.9491441 75.47696674 16.9491441 75.47696674 17.2578125 72.58203125 C17.50273437 72.05996094 17.74765625 71.53789062 18 71 C19.9375 71.6875 19.9375 71.6875 22 73 C22.75 75.625 22.75 75.625 23 78 C24.32 78.33 25.64 78.66 27 79 C25.55181976 70.83752958 22.62249489 64.21472394 18.25 57.1875 C17 55 17 55 16.77734375 52.6484375 C15.65599299 48.82795601 13.5241991 47.72714315 10.3125 45.4375 C9.12507514 44.56724235 7.94027087 43.6934002 6.7578125 42.81640625 C6.14067383 42.36023926 5.52353516 41.90407227 4.88769531 41.43408203 C-17.95135967 24.08325315 -17.95135967 24.08325315 -19.69921875 17.27734375 C-19.79847656 16.52582031 -19.89773437 15.77429688 -20 15 C-16.00296202 15.56179566 -14.03161732 17.47494467 -11.125 20.1875 C-10.63032227 20.64584229 -10.13564453 21.10418457 -9.62597656 21.57641602 C-5.85562198 25.11844853 -2.22236986 28.79063824 1.3984375 32.484375 C2.3699203 33.47114362 3.34143758 34.45787831 4.31298828 35.44458008 C6.24872238 37.41154087 8.16883846 39.3922577 10.08154297 41.3815918 C15.08738588 46.48844149 19.33684393 50.31753224 26 53 C24.9153396 45.9096793 24.9153396 45.9096793 22 39.4375 C19.73023877 35.35525545 19.46746117 31.1941473 19.0625 26.625 C18.26759293 18.16674916 16.70594183 11.30312206 10.125 5.4375 C6.69682626 3.86054008 3.74904394 3.29992352 0 3 C0 2.01 0 1.02 0 0 Z " transform="translate(131,135)" style="fill: #FAFAFA;"/><path d="M0 0 C13.53 0 27.06 0 41 0 C41 0.99 41 1.98 41 3 C40.40832031 3.09796875 39.81664062 3.1959375 39.20703125 3.296875 C34.17357687 4.24937208 30.63276546 5.15354246 27 9 C18.89518524 21.90766796 20.84902048 40.59028897 20.85473633 55.22827148 C20.85173461 56.79071125 20.8483298 58.35315028 20.84455872 59.91558838 C20.83582056 64.11192563 20.83338504 68.30824242 20.83274293 72.50458789 C20.83202696 75.13687582 20.82988248 77.76915872 20.82724571 80.40144539 C20.81802821 89.61406911 20.81390657 98.82667846 20.81469727 108.03930664 C20.81529809 116.58090349 20.80473597 125.12243721 20.7889536 133.66401809 C20.77581907 141.03945948 20.77051579 148.41488036 20.77115268 155.79033333 C20.77140579 160.17699642 20.76865834 164.56360318 20.75797462 168.95025444 C20.74819247 173.07821973 20.74828263 177.20607596 20.75549126 181.33404541 C20.75652444 182.83508021 20.75425118 184.33612218 20.7481308 185.83714485 C20.33361667 208.76089878 20.33361667 208.76089878 30.3125 228.5625 C33.94163843 230.50366707 36.90301895 230.72223857 41 231 C41 231.99 41 232.98 41 234 C20.21 234 -0.58 234 -22 234 C-22 233.01 -22 232.02 -22 231 C-21.33613281 230.91363281 -20.67226563 230.82726562 -19.98828125 230.73828125 C-14.16251072 229.81126083 -10.64613762 228.97200585 -7 224 C0.33272606 209.87771277 -0.85128283 193.0164716 -0.87060547 177.55102539 C-0.86924803 175.7150265 -0.86746617 173.87902789 -0.86529541 172.04302979 C-0.86076413 167.0910764 -0.86249222 162.13914401 -0.8656745 157.18719029 C-0.86821776 151.99388783 -0.86585534 146.80058709 -0.86428833 141.60728455 C-0.8624735 132.89630818 -0.8648561 124.18534031 -0.86962891 115.47436523 C-0.87508218 105.40517946 -0.8732984 95.33601389 -0.8678025 85.2668286 C-0.86326607 76.60840433 -0.86262307 67.94998614 -0.86524117 59.29156107 C-0.86679948 54.12553891 -0.86700966 48.95952626 -0.86370468 43.79350471 C-0.86081788 38.94335608 -0.86281659 34.09323358 -0.86859894 29.24308777 C-0.86992166 27.46330242 -0.86954067 25.68351487 -0.86733627 23.90373039 C-0.86460598 21.47571257 -0.86802883 19.0477787 -0.87301636 16.61976624 C-0.86967027 15.5624797 -0.86967027 15.5624797 -0.86625659 14.48383385 C-0.87761274 11.63603243 -0.98721415 9.05507223 -1.63293648 6.27376461 C-2 4 -2 4 0 0 Z " transform="translate(328,135)" style="fill: #FCFCFC;"/><path d="M0 0 C1.98 0 3.96 0 6 0 C7.06664848 3.16115821 8.09990908 6.32579049 9.078125 9.515625 C12.22741023 19.55134726 15.73880208 28.97798177 24 36 C24.845625 36.721875 25.69125 37.44375 26.5625 38.1875 C31.48893264 40.78507357 36.51650877 41.3256548 42 42 C42 42.99 42 43.98 42 45 C21.21 45 0.42 45 -21 45 C-21 44.01 -21 43.02 -21 42 C-20.34773437 41.93683594 -19.69546875 41.87367188 -19.0234375 41.80859375 C-14.45804434 41.16890002 -10.83782714 40.53299861 -7.5625 37.125 C-0.26058315 27.00516031 -0.93812326 11.98507201 0 0 Z " transform="translate(152,324)" style="fill: #F9F9F9;"/><path d="M0 0 C3.99703798 0.56179566 5.96838268 2.47494467 8.875 5.1875 C9.36967773 5.64584229 9.86435547 6.10418457 10.37402344 6.57641602 C14.14437802 10.11844853 17.77763014 13.79063824 21.3984375 17.484375 C22.3699203 18.47114362 23.34143758 19.45787831 24.31298828 20.44458008 C26.24872238 22.41154087 28.16883846 24.3922577 30.08154297 26.3815918 C35.08738588 31.48844149 39.33684393 35.31753224 46 38 C46 36.35 46 34.7 46 33 C46.33 33 46.66 33 47 33 C47.495 35.97 47.495 35.97 48 39 C46.68 39.66 45.36 40.32 44 41 C44.66 41.763125 45.32 42.52625 46 43.3125 C48 46 48 46 48 49 C47.01 49 46.02 49 45 49 C45.495 49.969375 45.99 50.93875 46.5 51.9375 C48.39857367 56.28728381 48.28589988 60.33030204 48 65 C46.02 65.495 46.02 65.495 44 66 C44.28875 66.53367187 44.5775 67.06734375 44.875 67.6171875 C47.85432515 73.59652755 48.4985299 78.36678275 48 85 C46.02 85.495 46.02 85.495 44 86 C44.32742187 86.70511719 44.65484375 87.41023438 44.9921875 88.13671875 C46.08400722 91.23867167 46.20385396 93.54006053 46.125 96.8125 C46.10695312 97.78832031 46.08890625 98.76414062 46.0703125 99.76953125 C46.04710937 100.50558594 46.02390625 101.24164063 46 102 C46.67675781 102.22171875 47.35351562 102.4434375 48.05078125 102.671875 C51.85074705 104.38311788 54.88747456 106.73040016 58.1875 109.25 C63.92460191 113.55300252 69.72731571 117.50205605 76 121 C74.515 121.495 74.515 121.495 73 122 C70.74983543 120.79303841 68.72706422 119.55473597 66.625 118.125 C65.70920166 117.51893921 65.70920166 117.51893921 64.77490234 116.90063477 C62.84053327 115.61378965 60.91865347 114.31014693 59 113 C58.36449219 112.5663916 57.72898438 112.1327832 57.07421875 111.68603516 C53.36607583 109.14772304 49.67682147 106.58354731 46 104 C46.49113281 105.36511719 46.49113281 105.36511719 46.9921875 106.7578125 C48.10188432 110.32776738 48.14864893 113.28377679 48 117 C46.02 117.99 46.02 117.99 44 119 C44.495 119.7425 44.99 120.485 45.5 121.25 C47 124 47 124 47 128 C43.13066838 127.42676569 40.84777943 125.61046448 38 123 C38 122.34 38 121.68 38 121 C40.49361571 122.20381448 42.68143083 123.45428722 45 125 C44.4225 124.22914063 43.845 123.45828125 43.25 122.6640625 C42.5075 121.66117187 41.765 120.65828125 41 119.625 C40.2575 118.62726563 39.515 117.62953125 38.75 116.6015625 C37 114 37 114 37 112 C37.556875 112.28875 38.11375 112.5775 38.6875 112.875 C41.08494645 114.0413253 43.51596939 115.0339881 46 116 C45.67 114.02 45.34 112.04 45 110 C44.34 110 43.68 110 43 110 C42.91363281 109.40832031 42.82726562 108.81664062 42.73828125 108.20703125 C42.59777344 107.41683594 42.45726562 106.62664062 42.3125 105.8125 C42.18488281 105.03519531 42.05726563 104.25789063 41.92578125 103.45703125 C39.84616995 97.93772531 34.25494489 94.47243102 29.8125 90.8125 C25.47448015 87.17217315 21.22429734 83.47099788 17.125 79.5625 C16.30257812 78.78003906 15.48015625 77.99757813 14.6328125 77.19140625 C13 75 13 75 13.2421875 72.71484375 C13.49226563 72.14894531 13.74234375 71.58304687 14 71 C18.46977443 72.43000096 21.46338417 74.88922628 24.8125 78.0625 C25.33440918 78.54984619 25.85631836 79.03719238 26.39404297 79.53930664 C37.56106489 90.09624964 37.56106489 90.09624964 40.0859375 95.19140625 C40.86601575 97.18156878 40.86601575 97.18156878 43 98 C43.40843195 91.32894482 41.81437728 86.85116429 38.25 81.25 C37.8375 80.5075 37.425 79.765 37 79 C37.495 77.515 37.495 77.515 38 76 C38.99 76 39.98 76 41 76 C41.495 79.465 41.495 79.465 42 83 C43.32 83 44.64 83 46 83 C46 75.59724887 43.62320383 70.95342007 39.70703125 64.87451172 C36.9491441 60.47696674 36.9491441 60.47696674 37.2578125 57.58203125 C37.50273437 57.05996094 37.74765625 56.53789062 38 56 C39.9375 56.6875 39.9375 56.6875 42 58 C42.75 60.625 42.75 60.625 43 63 C44.32 63.33 45.64 63.66 47 64 C45.55181976 55.83752958 42.62249489 49.21472394 38.25 42.1875 C37 40 37 40 36.77734375 37.6484375 C35.65599299 33.82795601 33.5241991 32.72714315 30.3125 30.4375 C29.12507514 29.56724235 27.94027087 28.6934002 26.7578125 27.81640625 C26.14067383 27.36023926 25.52353516 26.90407227 24.88769531 26.43408203 C2.04864033 9.08325315 2.04864033 9.08325315 0.30078125 2.27734375 C0.20152344 1.52582031 0.10226563 0.77429688 0 0 Z " transform="translate(111,150)" style="fill: #D5D5D5;"/><path d="M0 0 C0.99 0.495 0.99 0.495 2 1 C0.69154262 7.53326586 -1.14812739 13.54882443 -3.53515625 19.76171875 C-3.8854187 20.68871078 -4.23568115 21.61570282 -4.59655762 22.57078552 C-5.35187214 24.56798278 -6.10990197 26.56415487 -6.87039185 28.55938721 C-8.50411832 32.84631424 -10.12415872 37.13837122 -11.74485779 41.43023682 C-12.58582778 43.65716076 -13.42743775 45.88384313 -14.26966858 48.11029053 C-18.42260783 59.09486116 -22.50035998 70.10659259 -26.5625 81.125 C-27.26125173 83.01841412 -27.96006371 84.911806 -28.65893555 86.80517578 C-31.1416778 93.5328064 -33.62190826 100.26136235 -36.10211182 106.9899292 C-40.42788127 118.72474189 -44.75772131 130.45799434 -49.10664368 142.18424988 C-50.9474935 147.14978548 -52.77837934 152.11877803 -54.59786987 157.09217834 C-55.61637871 159.86995944 -56.64392895 162.64432274 -57.67437744 165.41769409 C-58.35439836 167.25678368 -59.02284389 169.10014047 -59.69091797 170.94360352 C-60.28864014 172.54353149 -60.28864014 172.54353149 -60.8984375 174.17578125 C-61.23536621 175.09270752 -61.57229492 176.00963379 -61.91943359 176.9543457 C-63 179 -63 179 -66 180 C-65.23418836 174.92300067 -63.37417669 170.27057542 -61.59765625 165.48046875 C-61.24912094 164.53213165 -60.90058563 163.58379456 -60.54148865 162.60671997 C-59.3856599 159.46555233 -58.22423014 156.32648942 -57.0625 153.1875 C-56.24072725 150.95928684 -55.41911534 148.73101436 -54.59765625 146.50268555 C-48.57304852 130.17813286 -42.47495931 113.88145136 -36.34960938 97.59448242 C-28.03277969 75.47164258 -19.81682313 53.31137832 -11.59375 31.15356445 C-11.17941287 30.03711941 -11.17941287 30.03711941 -10.75670528 28.89811993 C-9.45231168 25.38329087 -8.14811273 21.86838988 -6.84437561 18.35331726 C-4.57346929 12.23155335 -2.29853397 6.11145282 0 0 Z " transform="translate(325,142)" style="fill: #E1E1E1;"/><path d="M0 0 C10.18822785 1.1916056 17.6797834 8.26615934 24.90625 15.08203125 C27.04935291 17.14340431 27.04935291 17.14340431 30 19 C30 19.66 30 20.32 30 21 C25.97675823 19.33015936 22.97976457 16.52702871 19.75 13.6875 C11.62207053 6.64730436 11.62207053 6.64730436 2 2 C4.34029427 7.47476783 7.64441558 11.24638302 11.6875 15.5 C12.27466797 16.13808594 12.86183594 16.77617187 13.46679688 17.43359375 C17.18520534 21.39072485 21.03320782 24.67417816 25.50708008 27.75585938 C25.99974365 28.16642578 26.49240723 28.57699219 27 29 C27 29.66 27 30.32 27 31 C22.08191239 29.2180842 18.05806427 26.53287406 13.71875 23.65625 C11.19314899 22.11766548 8.77409409 21.00510655 6 20 C8.51812227 28.70263055 13.69492465 32.13681867 21 37 C27.64746475 41.91889189 27.64746475 41.91889189 28.9375 45.875 C28.958125 46.57625 28.97875 47.2775 29 48 C24.80165873 46.60305639 22.16409471 44.62717931 18.9375 41.625 C17.68259766 40.46871094 17.68259766 40.46871094 16.40234375 39.2890625 C15.60957031 38.53367187 14.81679687 37.77828125 14 37 C13.23816406 36.28585937 12.47632813 35.57171875 11.69140625 34.8359375 C10 33 10 33 10 31 C7.03 30.67 4.06 30.34 1 30 C1.28961914 34.77871573 3.58278928 37.1172658 6.72265625 40.44921875 C8 42 8 42 8 44 C3.54364166 42.51454722 1.03921961 39.07028234 -1 35 C-1.375 31.125 -1.375 31.125 -1 28 C0 27 0 27 3.0625 26.9375 C4.5165625 26.9684375 4.5165625 26.9684375 6 27 C5.67 26.34 5.34 25.68 5 25 C4.95977609 22.6670134 4.95679753 20.33293334 5 18 C7.31 18.33 9.62 18.66 12 19 C11.55269531 18.57589844 11.10539063 18.15179688 10.64453125 17.71484375 C0.28328612 7.66288952 0.28328612 7.66288952 -0.3125 2.0625 C-0.209375 1.381875 -0.10625 0.70125 0 0 Z " transform="translate(130,272)" style="fill: #DCDCDC;"/><path d="M0 0 C4.23348843 0.51797976 6.40412163 2.9018347 9.4375 5.75 C9.94958008 6.23009521 10.46166016 6.71019043 10.98925781 7.20483398 C12.67064126 8.79198884 14.33712141 10.39347425 16 12 C16.60279785 12.58088379 17.2055957 13.16176758 17.82666016 13.76025391 C19.64306721 15.51910383 21.44886776 17.28801983 23.25 19.0625 C23.82290771 19.62227539 24.39581543 20.18205078 24.98608398 20.75878906 C26.36383253 22.13379098 27.68749157 23.56259158 29 25 C29 25.66 29 26.32 29 27 C23.55416397 26.67720666 20.5418438 23.42296538 16.6875 19.9375 C16.02540527 19.34839844 15.36331055 18.75929687 14.68115234 18.15234375 C12.77610808 16.44692008 10.88599423 14.72643818 9 13 C8.10152344 12.18660156 7.20304687 11.37320313 6.27734375 10.53515625 C2.59206494 7.05052783 0.68992151 5.16556621 0 0 Z " transform="translate(111,150)" style="fill: #DCDCDC;"/><path d="M0 0 C4.49900957 1.4337503 7.50736323 3.9318214 10.875 7.125 C11.39731201 7.61419922 11.91962402 8.10339844 12.45776367 8.60742188 C21.88427431 17.53641818 21.88427431 17.53641818 24 21 C23.67 21.99 23.34 22.98 23 24 C18.11067073 22.50679702 15.16507508 19.70510125 11.5625 16.25 C10.74168945 15.48042969 10.74168945 15.48042969 9.90429688 14.6953125 C8.80768282 13.66228908 7.71854386 12.62127012 6.63720703 11.57226562 C5.51786686 10.49732517 4.37684015 9.44463803 3.21826172 8.41210938 C1.52734375 6.859375 1.52734375 6.859375 -1 4 C-0.65795898 1.82128906 -0.65795898 1.82128906 0 0 Z " transform="translate(125,221)" style="fill: #DADADA;"/><path d="M0 0 C10.18822785 1.1916056 17.6797834 8.26615934 24.90625 15.08203125 C27.04935291 17.14340431 27.04935291 17.14340431 30 19 C30 19.66 30 20.32 30 21 C25.97675823 19.33015936 22.97976457 16.52702871 19.75 13.6875 C11.62207053 6.64730436 11.62207053 6.64730436 2 2 C4.34029427 7.47476783 7.64441558 11.24638302 11.6875 15.5 C12.27466797 16.13808594 12.86183594 16.77617187 13.46679688 17.43359375 C17.18520534 21.39072485 21.03320782 24.67417816 25.50708008 27.75585938 C25.99974365 28.16642578 26.49240723 28.57699219 27 29 C27 29.66 27 30.32 27 31 C23.16466979 29.60596497 19.96511255 27.80677636 16.5625 25.5625 C12.7864447 23.11316683 9.08724668 20.87792415 5 19 C7.07553648 18.4465236 8.84365964 18 11 18 C10.37351563 17.31292969 9.74703125 16.62585938 9.1015625 15.91796875 C8.28429687 15.01691406 7.46703125 14.11585938 6.625 13.1875 C5.81289062 12.29417969 5.00078125 11.40085937 4.1640625 10.48046875 C0.93901933 6.783894 -0.26372732 4.87895536 0 0 Z " transform="translate(130,272)" style="fill: #C2C2C2;"/><path d="M0 0 C2 2 2 2 2.125 5.625 C2.08375 6.73875 2.0425 7.8525 2 9 C0.02 9.99 0.02 9.99 -2 11 C-1.505 11.7425 -1.01 12.485 -0.5 13.25 C1 16 1 16 1 20 C-2.86933162 19.42676569 -5.15222057 17.61046448 -8 15 C-8 14.34 -8 13.68 -8 13 C-5.50638429 14.20381448 -3.31856917 15.45428722 -1 17 C-1.5775 16.22914063 -2.155 15.45828125 -2.75 14.6640625 C-3.4925 13.66117187 -4.235 12.65828125 -5 11.625 C-5.7425 10.62726563 -6.485 9.62953125 -7.25 8.6015625 C-9 6 -9 6 -9 4 C-8.443125 4.28875 -7.88625 4.5775 -7.3125 4.875 C-4.91505355 6.0413253 -2.48403061 7.0339881 0 8 C-0.2784375 6.2984375 -0.2784375 6.2984375 -0.5625 4.5625 C-0.706875 3.386875 -0.85125 2.21125 -1 1 C-0.67 0.67 -0.34 0.34 0 0 Z " transform="translate(157,258)" style="fill: #C6C6C6;"/><path d="M0 0 C0.42410156 0.37511719 0.84820312 0.75023437 1.28515625 1.13671875 C5.36517338 4.69664579 9.5513476 7.91317997 14 11 C13.01 11.66 12.02 12.32 11 13 C12.49836105 16.11198065 14.19933758 19.0534615 16 22 C15.34 22.66 14.68 23.32 14 24 C13.0115904 22.44333045 12.03464918 20.87937574 11.0625 19.3125 C10.51722656 18.44238281 9.97195312 17.57226562 9.41015625 16.67578125 C8 14 8 14 7.59375 11.40625 C6.77464423 8.08671609 5.17409274 7.15322155 2.4375 5.1875 C1.61121094 4.58292969 0.78492188 3.97835937 -0.06640625 3.35546875 C-0.70449219 2.90816406 -1.34257812 2.46085938 -2 2 C-1.34 1.34 -0.68 0.68 0 0 Z " transform="translate(140,176)" style="fill: #E5E5E5;"/><path d="M0 0 C10.18822785 1.1916056 17.6797834 8.26615934 24.90625 15.08203125 C27.04935291 17.14340431 27.04935291 17.14340431 30 19 C30 19.66 30 20.32 30 21 C26.04714094 19.35614275 23.15462206 16.62106129 20 13.8125 C14.07108962 8.64394622 7.97229881 4.68087126 1 1 C0.67 1.99 0.34 2.98 0 4 C0 2.68 0 1.36 0 0 Z " transform="translate(130,272)" style="fill: #DBDBDB;"/><path d="M0 0 C4.24623616 2.71357103 8.00285276 5.60479477 11.75 9 C12.69359375 9.845625 13.6371875 10.69125 14.609375 11.5625 C16.7059589 13.70019339 17.90645541 15.25342288 19 18 C14.72116465 16.29268146 11.69474128 13.21502704 8.375 10.125 C7.49714844 9.33029297 7.49714844 9.33029297 6.6015625 8.51953125 C1.37053777 3.6844327 1.37053777 3.6844327 0 0 Z " transform="translate(126,223)" style="fill: #2F2F2F;"/><path d="M0 0 C4.07690223 0.52835511 6.25617734 1.64675717 9.3125 4.375 C10.00988281 4.98085938 10.70726562 5.58671875 11.42578125 6.2109375 C13 8 13 8 13 11 C9.54691313 9.48729451 7.04375621 7.45279358 4.25 4.9375 C3.45078125 4.22464844 2.6515625 3.51179688 1.828125 2.77734375 C1.22484375 2.19082031 0.6215625 1.60429687 0 1 C0 0.67 0 0.34 0 0 Z " transform="translate(145,307)" style="fill: #989898;"/><path d="M0 0 C7.15672794 4.86001295 13.01215417 10.81402692 19 17 C15.40348661 17 15.00334372 16.42220965 12.4609375 14.04296875 C11.46707031 13.11581055 11.46707031 13.11581055 10.453125 12.16992188 C9.76734375 11.51572266 9.0815625 10.86152344 8.375 10.1875 C7.68148437 9.54490234 6.98796875 8.90230469 6.2734375 8.24023438 C1.13152957 3.39458872 1.13152957 3.39458872 0 0 Z " transform="translate(113,152)" style="fill: #3D3D3D;"/><path d="M0 0 C2.66666667 2 5.33333333 4 8 6 C8.74765625 6.51949219 9.4953125 7.03898437 10.265625 7.57421875 C10.83796875 8.04472656 11.4103125 8.51523437 12 9 C12 9.66 12 10.32 12 11 C8.10993227 9.61219205 5.03441292 7.7847773 1.6875 5.375 C0.80449219 4.74335938 -0.07851562 4.11171875 -0.98828125 3.4609375 C-1.65214844 2.97882813 -2.31601563 2.49671875 -3 2 C-2.01 1.34 -1.02 0.68 0 0 Z " transform="translate(145,292)" style="fill: #DDDDDD;"/><path d="M0 0 C0.57492188 0.29132813 1.14984375 0.58265625 1.7421875 0.8828125 C3.17257024 1.59057974 4.61445418 2.27592471 6.0703125 2.9296875 C7.08738281 3.39761719 7.08738281 3.39761719 8.125 3.875 C8.80820313 4.18179688 9.49140625 4.48859375 10.1953125 4.8046875 C12.37775735 6.25020292 13.02820858 7.6055861 14 10 C9.57242604 9.49668786 7.42394796 8.00565648 4.1875 5 C3.39730469 4.278125 2.60710937 3.55625 1.79296875 2.8125 C0 1 0 1 0 0 Z " transform="translate(126,167)" style="fill: #CBCBCB;"/><path d="M0 0 C1.35304209 4.05912626 0.15216503 5.77149591 -1.4375 9.6875 C-1.91058594 10.86699219 -2.38367188 12.04648438 -2.87109375 13.26171875 C-3.24363281 14.16535156 -3.61617188 15.06898438 -4 16 C-4.66 16 -5.32 16 -6 16 C-3.67123288 3.67123288 -3.67123288 3.67123288 0 0 Z " transform="translate(301,210)" style="fill: #E2E2E2;"/><path d="M0 0 C0.33 0 0.66 0 1 0 C1.33 1.98 1.66 3.96 2 6 C0.68 6.33 -0.64 6.66 -2 7 C-1.42415568 9.38564077 -0.77772405 11.66682784 0 14 C-3.33523252 12.61990379 -5.18607951 11.15049348 -7 8 C-6.67 7.01 -6.34 6.02 -6 5 C-4.02 5 -2.04 5 0 5 C0 3.35 0 1.7 0 0 Z " transform="translate(157,183)" style="fill: #7F7F7F;"/><path d="M0 0 C1.2065625 0.0309375 1.2065625 0.0309375 2.4375 0.0625 C1.1175 0.3925 -0.2025 0.7225 -1.5625 1.0625 C-1.32639075 6.84717658 0.13488282 9.44310304 4.16015625 13.58203125 C5.4375 15.0625 5.4375 15.0625 5.4375 17.0625 C0.98114166 15.57704722 -1.52328039 12.13278234 -3.5625 8.0625 C-3.9375 4.1875 -3.9375 4.1875 -3.5625 1.0625 C-2.5625 0.0625 -2.5625 0.0625 0 0 Z " transform="translate(132.5625,298.9375)" style="fill: #C7C7C7;"/><path d="M0 0 C0.33 0 0.66 0 1 0 C1.33 2.97 1.66 5.94 2 9 C1.34 9 0.68 9 0 9 C0.33 10.98 0.66 12.96 1 15 C0.01 15.33 -0.98 15.66 -2 16 C-2.33 12.7 -2.66 9.4 -3 6 C-2.01 6 -1.02 6 0 6 C0 4.02 0 2.04 0 0 Z " transform="translate(156,244)" style="fill: #E6E6E6;"/><path d="M0 0 C3.09862934 1.3786853 5.24123432 2.97023198 7.625 5.375 C8.21539062 5.96023437 8.80578125 6.54546875 9.4140625 7.1484375 C11.03251433 9.03796008 12.11106768 10.67730587 13 13 C12.67 13.66 12.34 14.32 12 15 C11.01 14.67 10.02 14.34 9 14 C9 13.01 9 12.02 9 11 C7.00526149 8.45650635 7.00526149 8.45650635 4.5 5.875 C0 1.08333333 0 1.08333333 0 0 Z " transform="translate(136,230)" style="fill: #E1E1E1;"/><path d="M0 0 C1.15941038 3.47823115 0.70820884 5.45895578 0 9 C-1.32 9.33 -2.64 9.66 -4 10 C-5.65 8.02 -7.3 6.04 -9 4 C-8.67 3.34 -8.34 2.68 -8 2 C-7.34 2 -6.68 2 -6 2 C-5.71125 2.639375 -5.4225 3.27875 -5.125 3.9375 C-4.17176549 6.15206079 -4.17176549 6.15206079 -2 7 C-1.34 4.69 -0.68 2.38 0 0 Z " transform="translate(156,241)" style="fill: #C7C7C7;"/><path d="M0 0 C0.66 0.33 1.32 0.66 2 1 C2.144375 1.9075 2.28875 2.815 2.4375 3.75 C3.02624967 7.15166476 4.08367439 9.16717083 6 12 C2.66666667 11.33333333 -0.66666667 10.66666667 -4 10 C-4 9.67 -4 9.34 -4 9 C-2.35 8.67 -0.7 8.34 1 8 C0.67 7.34 0.34 6.68 0 6 C-0.039992 4.00039988 -0.04346799 1.99952758 0 0 Z " transform="translate(135,291)" style="fill: #E2E2E2;"/><path d="M0 0 C3.66571051 1.67207848 6.26046779 3.87315253 9.21875 6.5625 C11.05483541 8.04425314 12.85912386 9.02346001 15 10 C13.359375 10.8046875 13.359375 10.8046875 11 11 C8.8717606 9.43651686 7.11855833 7.95432351 5.25 6.125 C4.74339844 5.65191406 4.23679688 5.17882812 3.71484375 4.69140625 C2.44675562 3.49167866 1.21957442 2.24901242 0 1 C0 0.67 0 0.34 0 0 Z " transform="translate(132,232)" style="fill: #CDCDCD;"/><path d="M0 0 C2.49361571 1.20381448 4.68143083 2.45428722 7 4 C6.67 2.68 6.34 1.36 6 0 C7.5 1.25 7.5 1.25 9 3 C9 4.32 9 5.64 9 7 C5.13066838 6.42676569 2.84777943 4.61046448 0 2 C0 1.34 0 0.68 0 0 Z " transform="translate(149,271)" style="fill: #CBCBCB;"/><path d="M0 0 C0.66 0.33 1.32 0.66 2 1 C1.40075776 5.19469571 0.42500059 9.00999834 -1 13 C-1.66 12.34 -2.32 11.68 -3 11 C-2.57469657 7.17226914 -1.26430036 3.6243277 0 0 Z " transform="translate(313,174)" style="fill: #DCDCDC;"/><path d="M0 0 C0.99 0.66 1.98 1.32 3 2 C2.57692877 3.31722179 2.13602514 4.62872664 1.6875 5.9375 C1.44386719 6.66839844 1.20023437 7.39929688 0.94921875 8.15234375 C0 10 0 10 -3 11 C-2.32829194 7.1936543 -1.27253436 3.64793184 0 0 Z " transform="translate(262,311)" style="fill: #DEDEDE;"/><path d="M0 0 C0.43570313 0.37511719 0.87140625 0.75023437 1.3203125 1.13671875 C5.18607599 4.45859777 9.07657648 7.74642927 13 11 C12.01 11.33 11.02 11.66 10 12 C8.32737283 10.38113585 6.66204463 8.7547271 5 7.125 C4.071875 6.22007812 3.14375 5.31515625 2.1875 4.3828125 C0 2 0 2 0 0 Z " transform="translate(114,155)" style="fill: #D9D9D9;"/><path d="M0 0 C1.32 0.66 2.64 1.32 4 2 C3.67 2.99 3.34 3.98 3 5 C1.68 4.67 0.36 4.34 -1 4 C-0.67 2.68 -0.34 1.36 0 0 Z " transform="translate(149,206)" style="fill: #B4B4B4;"/><path d="M0 0 C2.88437779 1.29299694 4.87219421 2.65941363 7 5 C5.68 5.33 4.36 5.66 3 6 C0 2.25 0 2.25 0 0 Z " transform="translate(148,262)" style="fill: #E6E6E6;"/><path d="M0 0 C1.25541557 3.76624671 0.37061958 5.37188934 -1 9 C-1.66 8.67 -2.32 8.34 -3 8 C-2.25 2.25 -2.25 2.25 0 0 Z " transform="translate(301,210)" style="fill: #EBEBEB;"/><path d="M0 0 C1.25541557 3.76624671 0.37061958 5.37188934 -1 9 C-1.66 8.67 -2.32 8.34 -3 8 C-2.25 2.25 -2.25 2.25 0 0 Z " transform="translate(317,167)" style="fill: #EBEBEB;"/></svg>